<svg xmlns="http://www.w3.org/2000/svg" viewBox="0 0 720 430"><rect width="720" height="430" rx="25" fill="#e4eee9"/><path d="M0 330Q300 290 720 330V430H0Z" fill="#cbdcaf"/><path d="M0 370H720" stroke="#ede6d5" stroke-width="55"/><path d="M490 180V330" stroke="#a37b57" stroke-width="18"/><circle cx="490" cy="155" r="70" fill="#8bb682"/><path d="M570 300H670M585 280V340M650 280V340" stroke="#a37b57" stroke-width="13"/><g transform="translate(180 260)"><path d="M10 55 Q0 28 40 28 L80 0 H180 L215 28 H250 Q275 28 275 55 V85 H10Z" fill="#e96a57"/><path d="M88 8H128V30H61ZM140 8H177L200 30H140Z" fill="#d7f1f5"/><circle cx="65" cy="85" r="28" fill="#394842"/><circle cx="223" cy="85" r="28" fill="#394842"/><circle cx="65" cy="85" r="12" fill="#faf7ef"/><circle cx="223" cy="85" r="12" fill="#faf7ef"/><circle cx="250" cy="48" r="7" fill="#fff3b6"/></g></svg>